<?xml version="1.0" encoding="iso-8859-1"?>
<!-- Generator: Adobe Illustrator 19.0.0, SVG Export Plug-In . SVG Version: 6.00 Build 0)  -->
<svg version="1.1" id="Capa_1" xmlns="http://www.w3.org/2000/svg" xmlns:xlink="http://www.w3.org/1999/xlink" x="0px" y="0px"
	 viewBox="0 0 512 512" style="enable-background:new 0 0 512 512;" xml:space="preserve">
<rect x="361" y="90" style="fill:#54E360;" width="120" height="407"/>
<rect x="421" y="90" style="fill:#00CC71;" width="60" height="407"/>
<rect x="211" y="210" style="fill:#FFD400;" width="120" height="287"/>
<rect x="271" y="210" style="fill:#FDBF00;" width="60" height="287"/>
<rect x="61" y="331" style="fill:#FF9100;" width="120" height="166"/>
<rect x="121" y="331" style="fill:#FF7816;" width="60" height="166"/>
<polygon style="fill:#4A696F;" points="512,482 512,512 0,512 0,0 30,0 30,482 "/>
<path style="fill:#FF9100;" d="M181,135c0,19.499-12.599,36-30,42.299V210h-30v-32.701C103.599,171,91,154.499,91,135h30
	c0,8.399,6.599,15,15,15s15-6.601,15-15c0-8.401-6.599-15-15-15c-24.901,0-45-20.101-45-45c0-19.501,12.599-36,30-42.301V0h30
	v32.699C168.401,39,181,55.499,181,75h-30c0-8.401-6.599-15-15-15s-15,6.599-15,15c0,8.399,6.599,15,15,15
	C160.901,90,181,110.099,181,135z"/>
<g>
	<path style="fill:#FF7816;" d="M181,135c0,19.499-12.599,36-30,42.299V210h-15v-60c8.401,0,15-6.601,15-15c0-8.401-6.599-15-15-15
		V90C160.901,90,181,110.099,181,135z"/>
	<path style="fill:#FF7816;" d="M136,60V0h15v32.699C168.401,39,181,55.499,181,75h-30C151,66.599,144.401,60,136,60z"/>
</g>
<rect x="271" y="482" style="fill:#3E5959;" width="241" height="30"/>
<g>
</g>
<g>
</g>
<g>
</g>
<g>
</g>
<g>
</g>
<g>
</g>
<g>
</g>
<g>
</g>
<g>
</g>
<g>
</g>
<g>
</g>
<g>
</g>
<g>
</g>
<g>
</g>
<g>
</g>
</svg>
